<svg width="43" height="43" viewBox="0 0 43 43" fill="none" xmlns="http://www.w3.org/2000/svg">
<path d="M36.5877 33.9267C37.6832 32.4583 38.4349 30.7627 38.7875 28.9649C39.14 27.1672 39.0844 25.3132 38.6247 23.5398C38.165 21.7664 37.313 20.1189 36.1315 18.7188C34.9499 17.3188 33.4691 16.2019 31.7983 15.4506C31.4343 13.3566 30.5979 11.3732 29.3525 9.65105C28.1072 7.92885 26.4856 6.51318 24.6111 5.51159C22.7367 4.50999 20.6585 3.94884 18.5347 3.87077C16.4108 3.79269 14.2971 4.19975 12.3541 5.06101C10.4112 5.92227 8.69006 7.21507 7.32161 8.84118C5.95316 10.4673 4.97337 12.3839 4.45667 14.4455C3.93997 16.507 3.89997 18.6592 4.3397 20.7385C4.77943 22.8178 5.68733 24.7695 6.9944 26.4454L4.56471 28.8576C4.32216 29.1034 4.15786 29.4155 4.09253 29.7546C4.0272 30.0937 4.06377 30.4445 4.19763 30.7629C4.32876 31.0821 4.55145 31.3553 4.83763 31.5482C5.12381 31.7411 5.46068 31.8449 5.80577 31.8466H15.7518C16.7423 33.9348 18.3039 35.6997 20.2559 36.9371C22.2079 38.1745 24.4704 38.8337 26.7815 38.8385H37.2694C37.6145 38.8368 37.9514 38.733 38.2376 38.5401C38.5237 38.3473 38.7464 38.074 38.8776 37.7548C39.0114 37.4365 39.048 37.0856 38.9827 36.7465C38.9173 36.4074 38.753 36.0953 38.5105 35.8495L36.5877 33.9267ZM14.5457 26.6027C14.5481 27.188 14.5948 27.7724 14.6855 28.3507H10.0184L10.6302 27.7563C10.794 27.5938 10.9241 27.4005 11.0128 27.1875C11.1016 26.9745 11.1472 26.746 11.1472 26.5153C11.1472 26.2845 11.1016 26.056 11.0128 25.843C10.9241 25.63 10.794 25.4367 10.6302 25.2742C9.65056 24.3053 8.87392 23.1508 8.34568 21.8783C7.81745 20.6057 7.54822 19.2406 7.55375 17.8628C7.55375 15.0812 8.65872 12.4136 10.6256 10.4467C12.5924 8.47985 15.2601 7.37488 18.0416 7.37488C20.2121 7.36184 22.332 8.0293 24.1035 9.28344C25.875 10.5376 27.2089 12.3153 27.9177 14.3668C27.5332 14.3668 27.1661 14.3668 26.7815 14.3668C23.5364 14.3668 20.4242 15.6559 18.1295 17.9506C15.8348 20.2453 14.5457 23.3575 14.5457 26.6027ZM32.9694 35.3426L33.0568 35.43H26.7815C24.7597 35.4264 22.8017 34.7219 21.241 33.4366C19.6803 32.1513 18.6135 30.3646 18.2224 28.381C17.8312 26.3973 18.1399 24.3395 19.0958 22.5579C20.0517 20.7763 21.5957 19.3813 23.4648 18.6104C25.3339 17.8395 27.4125 17.7405 29.3464 18.3302C31.2803 18.92 32.9499 20.1619 34.0709 21.8446C35.1918 23.5272 35.6947 25.5465 35.4938 27.5583C35.293 29.5701 34.4008 31.4501 32.9694 32.8779C32.6401 33.2007 32.4516 33.6404 32.445 34.1015C32.446 34.3328 32.4928 34.5616 32.5828 34.7746C32.6728 34.9876 32.8042 35.1807 32.9694 35.3426Z" fill="white"/>
</svg>
