<svg width="24" height="24" viewBox="0 0 24 24" fill="none" xmlns="http://www.w3.org/2000/svg">
<path fill-rule="evenodd" clip-rule="evenodd" d="M11.9015 12.5262L19.2526 5.17521C19.4841 4.94363 19.8063 4.82505 20.133 4.8519C20.4596 4.87763 20.7583 5.04544 20.9508 5.31169C20.9508 5.31169 20.9787 5.35196 20.981 5.3542C22.2988 7.19 23.0763 9.43972 23.0763 11.8707C23.0763 18.0448 18.0634 23.0577 11.8892 23.0577C5.71508 23.0577 0.702148 18.0448 0.702148 11.8707C0.702148 5.69652 5.71508 0.683594 11.8892 0.683594C13.6747 0.683594 15.3639 1.10311 16.8619 1.84929C17.4156 2.12337 17.6405 2.79571 17.3653 3.34836C17.0901 3.901 16.4189 4.12698 15.8662 3.85177C14.6681 3.2555 13.3167 2.92101 11.8892 2.92101C6.95013 2.92101 2.93956 6.93158 2.93956 11.8707C2.93956 16.8098 6.95013 20.8203 11.8892 20.8203C16.8283 20.8203 20.8389 16.8098 20.8389 11.8707C20.8389 10.3873 20.4775 8.98664 19.8365 7.75495L12.6936 14.899C12.2562 15.3364 11.548 15.3364 11.1106 14.899L7.75448 11.5429C7.31819 11.1066 7.31819 10.3973 7.75448 9.96104C8.1919 9.52474 8.90004 9.52474 9.33745 9.96104L11.9015 12.5262Z" fill="#3AA500"/>
</svg>
