<svg width="24" height="17" viewBox="0 0 24 17" fill="none" xmlns="http://www.w3.org/2000/svg">
<g clip-path="url(#clip0_2699_649)">
<path d="M0.702148 2.02303V1.44917C0.702148 1.07829 0.849478 0.722607 1.11173 0.460359C1.37397 0.198111 1.72966 0.0507813 2.10053 0.0507813L21.6779 0.0507812C22.0488 0.0507813 22.4045 0.198111 22.6667 0.460359C22.929 0.722607 23.0763 1.07829 23.0763 1.44917V2.02303L11.8892 9.01495L0.702148 2.02303ZM12.2598 10.4326C12.1486 10.5019 12.0203 10.5387 11.8892 10.5387C11.7582 10.5387 11.6298 10.5019 11.5187 10.4326L0.702148 3.67207V15.433C0.702148 15.8039 0.849478 16.1596 1.11173 16.4218C1.37397 16.6841 1.72966 16.8314 2.10053 16.8314H21.6779C22.0488 16.8314 22.4045 16.6841 22.6667 16.4218C22.929 16.1596 23.0763 15.8039 23.0763 15.433V3.67207L12.2598 10.4326Z" fill="#313131"/>
</g>
<defs>
<clipPath id="clip0_2699_649">
<rect width="22.3742" height="16.7806" fill="white" transform="translate(0.702148 0.0507812)"/>
</clipPath>
</defs>
</svg>
