<svg width="24" height="23" viewBox="0 0 24 23" fill="none" xmlns="http://www.w3.org/2000/svg">
<path d="M4.22904 0.585938H19.8909C20.781 0.585938 21.6347 0.939523 22.2641 1.56891C22.8935 2.1983 23.2471 3.05193 23.2471 3.94201V15.1289C23.2471 16.019 22.8935 16.8727 22.2641 17.502C21.6347 18.1314 20.781 18.485 19.8909 18.485H6.92512L2.7859 22.6354C2.68137 22.739 2.5574 22.8211 2.4211 22.8767C2.2848 22.9324 2.13885 22.9606 1.99162 22.9598C1.84487 22.9636 1.69928 22.9329 1.56651 22.8703C1.36222 22.7864 1.18733 22.6438 1.0639 22.4607C0.940472 22.2775 0.874018 22.0619 0.872915 21.8411V3.94201C0.872915 3.05193 1.22651 2.1983 1.8559 1.56891C2.4853 0.939523 3.33894 0.585938 4.22904 0.585938ZM3.11033 19.145L5.67217 16.572C5.7767 16.4684 5.90067 16.3863 6.03697 16.3307C6.17327 16.275 6.31922 16.2468 6.46645 16.2476H19.8909C20.1876 16.2476 20.4722 16.1298 20.682 15.92C20.8918 15.7102 21.0097 15.4256 21.0097 15.1289V3.94201C21.0097 3.64532 20.8918 3.36077 20.682 3.15098C20.4722 2.94118 20.1876 2.82332 19.8909 2.82332H4.22904C3.93234 2.82332 3.64779 2.94118 3.43799 3.15098C3.22819 3.36077 3.11033 3.64532 3.11033 3.94201V19.145Z" fill="#C88746"/>
</svg>
