<svg width="24" height="23" viewBox="0 0 24 23" fill="none" xmlns="http://www.w3.org/2000/svg">
<path d="M4.22904 0.333984H19.8909C20.781 0.333984 21.6347 0.68757 22.2641 1.31696C22.8935 1.94634 23.2471 2.79997 23.2471 3.69006V14.877C23.2471 15.7671 22.8935 16.6207 22.2641 17.2501C21.6347 17.8795 20.781 18.2331 19.8909 18.2331H6.92512L2.7859 22.3834C2.68137 22.4871 2.5574 22.5691 2.4211 22.6248C2.2848 22.6805 2.13885 22.7087 1.99162 22.7078C1.84487 22.7116 1.69928 22.681 1.56651 22.6183C1.36222 22.5344 1.18733 22.3919 1.0639 22.2087C0.940472 22.0256 0.874018 21.81 0.872915 21.5891V3.69006C0.872915 2.79997 1.22651 1.94634 1.8559 1.31696C2.4853 0.68757 3.33894 0.333984 4.22904 0.333984ZM3.11033 18.8931L5.67217 16.3201C5.7767 16.2164 5.90067 16.1344 6.03697 16.0787C6.17327 16.023 6.31922 15.9948 6.46645 15.9957H19.8909C20.1876 15.9957 20.4722 15.8778 20.682 15.668C20.8918 15.4582 21.0097 15.1737 21.0097 14.877V3.69006C21.0097 3.39337 20.8918 3.10882 20.682 2.89903C20.4722 2.68923 20.1876 2.57137 19.8909 2.57137H4.22904C3.93234 2.57137 3.64779 2.68923 3.43799 2.89903C3.22819 3.10882 3.11033 3.39337 3.11033 3.69006V18.8931Z" fill="#4E77FF"/>
</svg>
