<svg width="24" height="25" viewBox="0 0 24 25" fill="none" xmlns="http://www.w3.org/2000/svg">
<path d="M17.7889 8.97468C16.2816 2.71107 12.3367 0.50038 12.1718 0.405297C12.0849 0.358476 11.9878 0.333984 11.8892 0.333984C11.7906 0.333984 11.6936 0.358476 11.6066 0.405297C11.4064 0.524151 7.44972 2.78238 5.96596 8.99846C4.54108 10.1751 0.702148 13.5981 0.702148 16.3793C0.702148 16.5369 0.764182 16.6881 0.874602 16.7995C0.985022 16.911 1.13478 16.9736 1.29094 16.9736H5.4125V18.7564C5.4125 18.914 5.47453 19.0651 5.58495 19.1766C5.69537 19.288 5.84513 19.3507 6.00129 19.3507H17.7772C17.9333 19.3507 18.0831 19.288 18.1935 19.1766C18.3039 19.0651 18.366 18.914 18.366 18.7564V16.9736H22.4875C22.6437 16.9736 22.7934 16.911 22.9039 16.7995C23.0143 16.6881 23.0763 16.5369 23.0763 16.3793C23.0763 13.5862 19.202 10.1513 17.7889 8.97468ZM13.0668 15.785H10.7116C10.5555 15.785 10.4057 15.7224 10.2953 15.611C10.1849 15.4995 10.1228 15.3484 10.1228 15.1908C10.1228 15.0331 10.1849 14.882 10.2953 14.7705C10.4057 14.6591 10.5555 14.5965 10.7116 14.5965H13.0668C13.223 14.5965 13.3727 14.6591 13.4832 14.7705C13.5936 14.882 13.6556 15.0331 13.6556 15.1908C13.6556 15.3484 13.5936 15.4995 13.4832 15.611C13.3727 15.7224 13.223 15.785 13.0668 15.785ZM11.8892 13.4079C11.307 13.4079 10.7378 13.2337 10.2536 12.9072C9.76951 12.5807 9.39218 12.1166 9.16935 11.5737C8.94653 11.0307 8.88823 10.4333 9.00183 9.85691C9.11542 9.28052 9.39581 8.75108 9.80753 8.33553C10.2192 7.91997 10.7438 7.63698 11.3149 7.52233C11.886 7.40768 12.4779 7.46652 13.0158 7.69142C13.5538 7.91631 14.0136 8.29716 14.337 8.78579C14.6605 9.27443 14.8332 9.84891 14.8332 10.4366C14.8332 11.2246 14.523 11.9804 13.9709 12.5377C13.4188 13.0949 12.67 13.4079 11.8892 13.4079ZM16.5996 20.5392C16.4434 20.5392 16.2937 20.6018 16.1832 20.7133C16.0728 20.8247 16.0108 20.9759 16.0108 21.1335V22.322C16.0108 22.4796 16.0728 22.6308 16.1832 22.7422C16.2937 22.8537 16.4434 22.9163 16.5996 22.9163C16.7557 22.9163 16.9055 22.8537 17.0159 22.7422C17.1263 22.6308 17.1884 22.4796 17.1884 22.322V21.1335C17.1884 20.9759 17.1263 20.8247 17.0159 20.7133C16.9055 20.6018 16.7557 20.5392 16.5996 20.5392ZM7.17888 20.5392C7.02272 20.5392 6.87296 20.6018 6.76254 20.7133C6.65212 20.8247 6.59008 20.9759 6.59008 21.1335V22.322C6.59008 22.4796 6.65212 22.6308 6.76254 22.7422C6.87296 22.8537 7.02272 22.9163 7.17888 22.9163C7.33504 22.9163 7.4848 22.8537 7.59522 22.7422C7.70564 22.6308 7.76767 22.4796 7.76767 22.322V21.1335C7.76767 20.9759 7.70564 20.8247 7.59522 20.7133C7.4848 20.6018 7.33504 20.5392 7.17888 20.5392ZM11.5006 23.9503C11.6056 24.0506 11.7447 24.1065 11.8892 24.1065C12.0338 24.1065 12.1729 24.0506 12.2778 23.9503C13.2752 23.0034 14.0411 21.8357 14.5152 20.5392H9.26321C9.73732 21.8357 10.5032 23.0034 11.5006 23.9503Z" fill="#4E77FF"/>
</svg>
