<svg width="24" height="24" viewBox="0 0 24 24" fill="none" xmlns="http://www.w3.org/2000/svg">
<path d="M4.71688 9.3801H3.0563C2.39568 9.3801 1.76212 9.64253 1.29499 10.1097C0.82786 10.5768 0.56543 11.2103 0.56543 11.871V21.0042C0.56543 21.6648 0.82786 22.2984 1.29499 22.7655C1.76212 23.2326 2.39568 23.495 3.0563 23.495H4.71688C5.3775 23.495 6.01107 23.2326 6.4782 22.7655C6.94533 22.2984 7.20776 21.6648 7.20776 21.0042V11.871C7.20776 11.2103 6.94533 10.5768 6.4782 10.1097C6.01107 9.64253 5.3775 9.3801 4.71688 9.3801ZM5.54718 21.0042C5.54718 21.2244 5.4597 21.4356 5.30399 21.5913C5.14828 21.747 4.93709 21.8345 4.71688 21.8345H3.0563C2.8361 21.8345 2.62491 21.747 2.4692 21.5913C2.31349 21.4356 2.22601 21.2244 2.22601 21.0042V11.871C2.22601 11.6508 2.31349 11.4396 2.4692 11.2839C2.62491 11.1282 2.8361 11.0407 3.0563 11.0407H4.71688C4.93709 11.0407 5.14828 11.1282 5.30399 11.2839C5.4597 11.4396 5.54718 11.6508 5.54718 11.871V21.0042ZM13.0198 11.871H11.3592C10.6986 11.871 10.065 12.1334 9.5979 12.6005C9.13077 13.0677 8.86834 13.7012 8.86834 14.3618V21.0042C8.86834 21.6648 9.13077 22.2984 9.5979 22.7655C10.065 23.2326 10.6986 23.495 11.3592 23.495H13.0198C13.6804 23.495 14.314 23.2326 14.7811 22.7655C15.2482 22.2984 15.5107 21.6648 15.5107 21.0042V14.3618C15.5107 13.7012 15.2482 13.0677 14.7811 12.6005C14.314 12.1334 13.6804 11.871 13.0198 11.871ZM13.8501 21.0042C13.8501 21.2244 13.7626 21.4356 13.6069 21.5913C13.4512 21.747 13.24 21.8345 13.0198 21.8345H11.3592C11.139 21.8345 10.9278 21.747 10.7721 21.5913C10.6164 21.4356 10.5289 21.2244 10.5289 21.0042V14.3618C10.5289 14.1416 10.6164 13.9304 10.7721 13.7747C10.9278 13.619 11.139 13.5316 11.3592 13.5316H13.0198C13.24 13.5316 13.4512 13.619 13.6069 13.7747C13.7626 13.9304 13.8501 14.1416 13.8501 14.3618V21.0042ZM21.3227 8.5498H19.6621C19.0015 8.5498 18.3679 8.81223 17.9008 9.27936C17.4337 9.74649 17.1712 10.3801 17.1712 11.0407V21.0042C17.1712 21.6648 17.4337 22.2984 17.9008 22.7655C18.3679 23.2326 19.0015 23.495 19.6621 23.495H21.3227C21.9833 23.495 22.6169 23.2326 23.084 22.7655C23.5511 22.2984 23.8136 21.6648 23.8136 21.0042V11.0407C23.8136 10.3801 23.5511 9.74649 23.084 9.27936C22.6169 8.81223 21.9833 8.5498 21.3227 8.5498ZM22.153 21.0042C22.153 21.2244 22.0655 21.4356 21.9098 21.5913C21.7541 21.747 21.5429 21.8345 21.3227 21.8345H19.6621C19.4419 21.8345 19.2307 21.747 19.075 21.5913C18.9193 21.4356 18.8318 21.2244 18.8318 21.0042V11.0407C18.8318 10.8205 18.9193 10.6093 19.075 10.4536C19.2307 10.2979 19.4419 10.2104 19.6621 10.2104H21.3227C21.5429 10.2104 21.7541 10.2979 21.9098 10.4536C22.0655 10.6093 22.153 10.8205 22.153 11.0407V21.0042Z" fill="#171938"/>
<path d="M21.8728 1.04722C21.8115 0.957043 21.733 0.879833 21.6418 0.819998C21.5507 0.760164 21.4486 0.718877 21.3414 0.698497L19.0341 0.261764C18.9256 0.237775 18.8133 0.235812 18.7041 0.25599C18.5948 0.276168 18.4907 0.318076 18.3979 0.379232C18.3051 0.440387 18.2255 0.519546 18.1639 0.612016C18.1023 0.704486 18.0599 0.808387 18.0391 0.91756C18.0184 1.02673 18.0198 1.13896 18.0432 1.24758C18.0667 1.35621 18.1117 1.45902 18.1756 1.54994C18.2395 1.64085 18.321 1.71801 18.4152 1.77685C18.5095 1.83568 18.6146 1.87499 18.7244 1.89246L18.8597 1.91819L12.1153 5.96503L4.19428 2.79664C3.9897 2.71495 3.76106 2.71786 3.55863 2.80475C3.35621 2.89163 3.19659 3.05537 3.1149 3.25994C3.0332 3.46452 3.03612 3.69316 3.123 3.89559C3.20989 4.09801 3.37363 4.25763 3.5782 4.33932L11.8811 7.66049C12 7.70792 12.1283 7.7272 12.2559 7.71683C12.3836 7.70646 12.507 7.66672 12.6167 7.60071L20.0312 3.15284L19.9333 3.66762C19.913 3.77498 19.9141 3.88529 19.9365 3.99223C19.9589 4.09917 20.0022 4.20064 20.0639 4.29081C20.1256 4.38098 20.2045 4.45808 20.2961 4.5177C20.3876 4.57732 20.4901 4.61828 20.5975 4.63823C20.649 4.64806 20.7012 4.65306 20.7536 4.65317C20.9468 4.65287 21.1338 4.58521 21.2825 4.46185C21.4312 4.33848 21.5322 4.16714 21.5681 3.97732L22.0057 1.66994C22.0259 1.56251 22.0245 1.45215 22.0017 1.34525C21.9789 1.23835 21.9351 1.13705 21.8728 1.04722Z" fill="#C88746"/>
</svg>
