<svg width="36" height="36" viewBox="0 0 36 36" fill="none" xmlns="http://www.w3.org/2000/svg">
<g clip-path="url(#clip0_2699_712)">
<path d="M29.079 35.2225H6.59786C6.4266 35.2225 6.26237 35.1513 6.14127 35.0245C6.02018 34.8978 5.95215 34.7259 5.95215 34.5466V5.13385C5.95215 4.95461 6.02018 4.7827 6.14127 4.65596C6.26237 4.52921 6.4266 4.45801 6.59786 4.45801H11.9653C12.1366 4.45801 12.3008 4.52921 12.4219 4.65596C12.543 4.7827 12.611 4.95461 12.611 5.13385C12.611 5.3131 12.543 5.485 12.4219 5.61175C12.3008 5.73849 12.1366 5.8097 11.9653 5.8097H7.24356V33.8708H28.4333V5.8097H23.7115C23.5403 5.8097 23.376 5.73849 23.2549 5.61175C23.1339 5.485 23.0658 5.3131 23.0658 5.13385C23.0658 4.95461 23.1339 4.7827 23.2549 4.65596C23.376 4.52921 23.5403 4.45801 23.7115 4.45801H29.079C29.2502 4.45801 29.4145 4.52921 29.5356 4.65596C29.6567 4.7827 29.7247 4.95461 29.7247 5.13385V34.5466C29.7247 34.7259 29.6567 34.8978 29.5356 35.0245C29.4145 35.1513 29.2502 35.2225 29.079 35.2225Z" fill="#80CC16"/>
<path d="M23.5079 8.65311H12.1693C12.004 8.65311 11.8454 8.5834 11.7285 8.45931C11.6116 8.33523 11.5459 8.16693 11.5459 7.99145V3.72123C11.5459 3.54575 11.6116 3.37745 11.7285 3.25337C11.8454 3.12928 12.004 3.05957 12.1693 3.05957H15.8857C16.0511 3.05957 16.2097 3.12928 16.3266 3.25337C16.4435 3.37745 16.5092 3.54575 16.5092 3.72123C16.5092 3.89672 16.4435 4.06501 16.3266 4.1891C16.2097 4.31319 16.0511 4.3829 15.8857 4.3829H12.7928V7.32978H22.8845V4.3829H19.7915C19.6262 4.3829 19.4676 4.31319 19.3507 4.1891C19.2338 4.06501 19.1681 3.89672 19.1681 3.72123C19.1681 3.54575 19.2338 3.37745 19.3507 3.25337C19.4676 3.12928 19.6262 3.05957 19.7915 3.05957H23.5079C23.6733 3.05957 23.8318 3.12928 23.9488 3.25337C24.0657 3.37745 24.1314 3.54575 24.1314 3.72123V7.99145C24.1314 8.16693 24.0657 8.33523 23.9488 8.45931C23.8318 8.5834 23.6733 8.65311 23.5079 8.65311Z" fill="#80CC16"/>
<path d="M19.9087 3.84106C19.8682 3.8412 19.8278 3.83754 19.7881 3.83011C19.617 3.79867 19.4655 3.70129 19.367 3.55938C19.2685 3.41746 19.2309 3.24264 19.2627 3.07337C19.2756 3.00281 19.282 2.93124 19.282 2.85954C19.282 2.14419 18.6405 1.56112 17.8522 1.56112C17.0639 1.56112 16.4224 2.14338 16.4224 2.85954C16.4223 2.93124 16.4288 3.00281 16.4417 3.07337C16.471 3.24165 16.4322 3.41459 16.3336 3.55473C16.2349 3.69488 16.0845 3.79094 15.9147 3.82211C15.745 3.85328 15.5697 3.81704 15.4268 3.72125C15.2839 3.62545 15.185 3.47782 15.1513 3.31033C15.1238 3.16162 15.1101 3.01072 15.1103 2.85954C15.1103 1.42803 16.3408 0.262695 17.8526 0.262695C19.3644 0.262695 20.5949 1.42722 20.5949 2.85954C20.5951 3.01072 20.5814 3.16162 20.5538 3.31033C20.5259 3.4594 20.446 3.59409 20.3282 3.69103C20.2104 3.78797 20.0619 3.84105 19.9087 3.84106ZM26.2718 11.169H19.5576C19.3835 11.169 19.2166 11.1006 19.0935 10.9789C18.9705 10.8571 18.9013 10.692 18.9013 10.5198C18.9013 10.3476 18.9705 10.1825 19.0935 10.0608C19.2166 9.939 19.3835 9.8706 19.5576 9.8706H26.2718C26.4458 9.8706 26.6127 9.939 26.7358 10.0608C26.8589 10.1825 26.928 10.3476 26.928 10.5198C26.928 10.692 26.8589 10.8571 26.7358 10.9789C26.6127 11.1006 26.4458 11.169 26.2718 11.169ZM26.2718 15.2611H19.5576C19.3835 15.2611 19.2166 15.1927 19.0935 15.0709C18.9705 14.9492 18.9013 14.784 18.9013 14.6119C18.9013 14.4397 18.9705 14.2746 19.0935 14.1528C19.2166 14.0311 19.3835 13.9627 19.5576 13.9627H26.2718C26.4458 13.9627 26.6127 14.0311 26.7358 14.1528C26.8589 14.2746 26.928 14.4397 26.928 14.6119C26.928 14.784 26.8589 14.9492 26.7358 15.0709C26.6127 15.1927 26.4458 15.2611 26.2718 15.2611ZM11.1938 15.4043C11.0197 15.4042 10.8529 15.3358 10.7299 15.214L8.96868 13.4717C8.90323 13.4126 8.85058 13.3409 8.81389 13.2611C8.7772 13.1813 8.75724 13.0949 8.75521 13.0072C8.75318 12.9196 8.76912 12.8324 8.80207 12.751C8.83502 12.6696 8.8843 12.5957 8.94694 12.5336C9.00957 12.4716 9.08426 12.4227 9.16651 12.39C9.24875 12.3573 9.33683 12.3414 9.42545 12.3433C9.51407 12.3452 9.60138 12.3648 9.68211 12.401C9.76285 12.4372 9.83534 12.4892 9.89521 12.5539L11.1921 13.8369L15.1542 9.91767C15.2779 9.79889 15.4438 9.73302 15.6162 9.7343C15.7886 9.73558 15.9536 9.80392 16.0754 9.92453C16.1973 10.0451 16.2663 10.2084 16.2675 10.3789C16.2687 10.5494 16.2021 10.7136 16.0819 10.8359L11.6589 15.214C11.5978 15.2745 11.5253 15.3224 11.4455 15.355C11.3657 15.3877 11.2801 15.4044 11.1938 15.4043ZM26.2718 18.9806H19.5576C19.3835 18.9806 19.2166 18.9123 19.0935 18.7905C18.9705 18.6687 18.9013 18.5036 18.9013 18.3314C18.9013 18.1593 18.9705 17.9941 19.0935 17.8724C19.2166 17.7506 19.3835 17.6822 19.5576 17.6822H26.2718C26.4458 17.6822 26.6127 17.7506 26.7358 17.8724C26.8589 17.9941 26.928 18.1593 26.928 18.3314C26.928 18.5036 26.8589 18.6687 26.7358 18.7905C26.6127 18.9123 26.4458 18.9806 26.2718 18.9806ZM26.2718 23.0727H19.5576C19.3835 23.0727 19.2166 23.0043 19.0935 22.8826C18.9705 22.7608 18.9013 22.5957 18.9013 22.4235C18.9013 22.2513 18.9705 22.0862 19.0935 21.9644C19.2166 21.8427 19.3835 21.7743 19.5576 21.7743H26.2718C26.4458 21.7743 26.6127 21.8427 26.7358 21.9644C26.8589 22.0862 26.928 22.2513 26.928 22.4235C26.928 22.5957 26.8589 22.7608 26.7358 22.8826C26.6127 23.0043 26.4458 23.0727 26.2718 23.0727ZM11.1938 23.2159C11.0199 23.2161 10.853 23.1479 10.7299 23.0264L8.96868 21.2817C8.90196 21.2229 8.84809 21.1512 8.81037 21.0711C8.77265 20.9909 8.75186 20.904 8.74929 20.8157C8.74673 20.7273 8.76242 20.6394 8.79543 20.5572C8.82843 20.4751 8.87805 20.4004 8.94123 20.3379C9.00442 20.2754 9.07984 20.2264 9.16288 20.1937C9.24591 20.161 9.33482 20.1455 9.42414 20.1481C9.51346 20.1506 9.60131 20.1712 9.68231 20.2085C9.76332 20.2458 9.83576 20.2991 9.89521 20.3651L11.1938 21.6469L15.1558 17.7277C15.2162 17.6649 15.2886 17.6146 15.3689 17.5799C15.4491 17.5452 15.5356 17.5268 15.6232 17.5257C15.7108 17.5246 15.7977 17.5408 15.8788 17.5735C15.96 17.6061 16.0337 17.6545 16.0956 17.7158C16.1576 17.777 16.2065 17.85 16.2395 17.9302C16.2725 18.0105 16.2889 18.0965 16.2878 18.1831C16.2867 18.2698 16.268 18.3553 16.2329 18.4347C16.1979 18.5142 16.1471 18.5858 16.0836 18.6455L11.6589 23.0264C11.5977 23.0867 11.5252 23.1345 11.4454 23.167C11.3656 23.1995 11.2801 23.2162 11.1938 23.2159ZM26.2718 26.7919H19.5576C19.3835 26.7919 19.2166 26.7235 19.0935 26.6017C18.9705 26.48 18.9013 26.3148 18.9013 26.1427C18.9013 25.9705 18.9705 25.8053 19.0935 25.6836C19.2166 25.5618 19.3835 25.4934 19.5576 25.4934H26.2718C26.4458 25.4934 26.6127 25.5618 26.7358 25.6836C26.8589 25.8053 26.928 25.9705 26.928 26.1427C26.928 26.3148 26.8589 26.48 26.7358 26.6017C26.6127 26.7235 26.4458 26.7919 26.2718 26.7919ZM26.2718 30.8843H19.5576C19.3835 30.8843 19.2166 30.8159 19.0935 30.6942C18.9705 30.5724 18.9013 30.4073 18.9013 30.2351C18.9013 30.0629 18.9705 29.8978 19.0935 29.7761C19.2166 29.6543 19.3835 29.5859 19.5576 29.5859H26.2718C26.4458 29.5859 26.6127 29.6543 26.7358 29.7761C26.8589 29.8978 26.928 30.0629 26.928 30.2351C26.928 30.4073 26.8589 30.5724 26.7358 30.6942C26.6127 30.8159 26.4458 30.8843 26.2718 30.8843ZM11.1938 31.0272C11.0198 31.0272 10.8529 30.9589 10.7299 30.8373L8.96868 29.0925C8.85873 28.9686 8.80059 28.8078 8.80606 28.643C8.81153 28.4782 8.8802 28.3216 8.99812 28.2051C9.11605 28.0885 9.27439 28.0207 9.441 28.0154C9.60761 28.0102 9.77001 28.0678 9.89521 28.1767L11.1921 29.4601L15.1542 25.5405C15.2779 25.4217 15.4438 25.3559 15.6162 25.3571C15.7886 25.3584 15.9536 25.4268 16.0754 25.5474C16.1973 25.668 16.2663 25.8312 16.2675 26.0017C16.2687 26.1723 16.2021 26.3364 16.0819 26.4587L11.6589 30.8373C11.5978 30.8976 11.5252 30.9455 11.4454 30.9781C11.3656 31.0106 11.2801 31.0273 11.1938 31.0272Z" fill="#80CC16"/>
</g>
<defs>
<clipPath id="clip0_2699_712">
<rect width="34.9596" height="34.9596" fill="white" transform="translate(0.358398 0.262695)"/>
</clipPath>
</defs>
</svg>
