<svg width="36" height="36" viewBox="0 0 36 36" fill="none" xmlns="http://www.w3.org/2000/svg">
<path d="M32.0021 11.7696L33.9904 10.1154C34.4018 9.76928 34.633 9.29987 34.633 8.8104C34.633 8.32094 34.4018 7.85153 33.9904 7.50543C33.5789 7.15932 33.0209 6.96489 32.4391 6.96489C31.8572 6.96489 31.2992 7.15932 30.8877 7.50543L28.9212 9.178C25.8591 7.18535 22.0972 6.1042 18.2258 6.1042C14.3543 6.1042 10.5924 7.18535 7.53032 9.178L5.54199 7.48705C5.12766 7.14094 4.56684 6.94747 3.98293 6.9492C3.39902 6.95092 2.83984 7.1477 2.4284 7.49624C2.01696 7.84477 1.78697 8.31653 1.78902 8.80771C1.79107 9.2989 2.02499 9.76928 2.43932 10.1154L4.4495 11.788C2.05262 14.3566 0.752066 17.5287 0.756893 20.7942C0.749758 23.1384 1.40903 25.4501 2.67972 27.5364C3.95042 29.6228 5.7957 31.4233 8.06169 32.7879C10.3277 34.1525 12.9487 35.0415 15.7061 35.3809C18.4635 35.7203 21.2774 35.5001 23.9132 34.7388C26.5489 33.9776 28.9301 32.6972 30.8581 31.0045C32.786 29.3119 34.205 27.256 34.9965 25.0083C35.7881 22.7606 35.9293 20.3863 35.4084 18.0834C34.8875 15.7804 33.7196 13.6157 32.0021 11.7696ZM18.2367 31.8221C15.6438 31.8221 13.1092 31.1754 10.9533 29.9636C8.79735 28.7518 7.11703 27.0295 6.12477 25.0144C5.13252 22.9993 4.8729 20.7819 5.37875 18.6427C5.88459 16.5035 7.13319 14.5385 8.96663 12.9962C10.8001 11.4539 13.136 10.4036 15.6791 9.97806C18.2222 9.55255 20.8581 9.77094 23.2536 10.6056C25.6491 11.4403 27.6966 12.8538 29.1372 14.6673C30.5777 16.4809 31.3466 18.613 31.3466 20.7942C31.3466 23.719 29.9654 26.524 27.5068 28.5921C25.0482 30.6603 21.7137 31.8221 18.2367 31.8221ZM13.8668 4.25217H22.6067C23.1861 4.25217 23.7419 4.05852 24.1517 3.71383C24.5614 3.36914 24.7916 2.90164 24.7916 2.41417C24.7916 1.9267 24.5614 1.4592 24.1517 1.11451C23.7419 0.769818 23.1861 0.576172 22.6067 0.576172H13.8668C13.2873 0.576172 12.7315 0.769818 12.3217 1.11451C11.912 1.4592 11.6818 1.9267 11.6818 2.41417C11.6818 2.90164 11.912 3.36914 12.3217 3.71383C12.7315 4.05852 13.2873 4.25217 13.8668 4.25217ZM20.4217 15.2802C20.4217 14.7927 20.1915 14.3252 19.7817 13.9805C19.372 13.6358 18.8162 13.4422 18.2367 13.4422C17.6572 13.4422 17.1015 13.6358 16.6917 13.9805C16.2819 14.3252 16.0517 14.7927 16.0517 15.2802V18.754C15.557 19.1262 15.2083 19.616 15.0517 20.1587C14.8952 20.7013 14.9381 21.2711 15.175 21.7927C15.4118 22.3143 15.8314 22.7631 16.3781 23.0797C16.9248 23.3964 17.5729 23.5659 18.2367 23.5659C18.9005 23.5659 19.5486 23.3964 20.0953 23.0797C20.642 22.7631 21.0616 22.3143 21.2984 21.7927C21.5353 21.2711 21.5783 20.7013 21.4217 20.1587C21.2651 19.616 20.9164 19.1262 20.4217 18.754V15.2802Z" fill="#59B0F7"/>
</svg>
