<svg width="36" height="36" viewBox="0 0 36 36" fill="none" xmlns="http://www.w3.org/2000/svg">
<path fill-rule="evenodd" clip-rule="evenodd" d="M19.5776 5.9479V7.29117C19.5535 8.4825 17.6285 9.16153 17.02 7.85994C16.9389 7.68117 16.8959 7.48747 16.8937 7.29117V5.9479H12.8691C11.8361 5.89815 11.1443 4.54682 11.8549 3.72526C12.0994 3.44289 12.2969 3.2896 12.8691 3.26137C14.2098 3.26137 15.5517 3.25733 16.8937 3.24926V1.91944C16.8902 1.77622 16.9129 1.63356 16.9609 1.49858C17.1382 0.959387 17.6688 0.576172 18.2625 0.576172C18.9785 0.604409 19.5615 1.14091 19.5776 1.91944V3.23313C22.2602 3.21699 24.9442 3.2022 27.6281 3.21565V1.91944C27.6415 1.20142 28.1654 0.607098 28.9432 0.576172H28.9956C29.7129 0.604409 30.2959 1.14091 30.3107 1.91944V3.23985L31.752 3.26271C33.8087 3.32725 35.6382 5.09811 35.6772 7.24142C35.7282 15.332 35.7282 23.4238 35.6772 31.5157C35.6396 33.5932 33.8436 35.4541 31.7023 35.4944C22.725 35.5496 13.7463 35.5496 4.769 35.4944C2.70164 35.4554 0.834443 33.694 0.794144 31.5157C0.743098 23.4238 0.743098 15.332 0.794144 7.24142C0.831756 5.1492 2.62239 3.27616 4.81467 3.26137H6.16066V1.91944C6.15643 1.77617 6.17921 1.63339 6.22783 1.49858C6.40515 0.959387 6.93575 0.576172 7.52815 0.576172C8.24548 0.604409 8.82847 1.14091 8.84325 1.91944V7.29117C8.82042 8.48115 6.95053 9.14808 6.30977 7.90835C6.21326 7.71686 6.16224 7.50564 6.16066 7.29117V5.94252C5.70214 5.93894 5.24359 5.94073 4.78511 5.9479C4.10406 5.96942 3.49822 6.56642 3.47673 7.25756C3.32695 15.3371 3.32695 23.4187 3.47673 31.4982C3.49822 32.1813 4.09465 32.7864 4.78511 32.8079C13.7514 32.9746 22.72 32.9746 31.6862 32.8079C32.3673 32.7864 32.9731 32.1894 32.9946 31.4982C33.1437 23.4198 33.1437 15.336 32.9946 7.25756C32.9743 6.9104 32.8249 6.58343 32.5757 6.34104C32.3266 6.09865 31.9959 5.9584 31.6486 5.9479H30.3107V7.29117C30.2878 8.4704 28.4126 9.13598 27.7772 7.90835C27.6813 7.71663 27.6303 7.50556 27.6281 7.29117V5.9479H19.5776ZM7.50129 27.4362C7.68118 27.4305 7.86038 27.461 8.02824 27.526C8.19611 27.591 8.34922 27.6891 8.47849 27.8144C8.60775 27.9398 8.71052 28.0899 8.78071 28.2557C8.8509 28.4216 8.88707 28.6 8.88707 28.7801C8.88707 28.9603 8.8509 29.1386 8.78071 29.3045C8.71052 29.4704 8.60775 29.6205 8.47849 29.7458C8.34922 29.8712 8.19611 29.9693 8.02824 30.0342C7.86038 30.0992 7.68118 30.1298 7.50129 30.1241C7.15255 30.113 6.82178 29.9666 6.579 29.7157C6.33621 29.4649 6.20045 29.1294 6.20045 28.7801C6.20045 28.4309 6.33621 28.0953 6.579 27.8445C6.82178 27.5936 7.15255 27.4472 7.50129 27.4362ZM12.8691 27.4362C13.0504 27.4282 13.2315 27.4571 13.4013 27.5212C13.5711 27.5852 13.7262 27.683 13.8572 27.8086C13.9882 27.9343 14.0925 28.0852 14.1636 28.2523C14.2348 28.4194 14.2713 28.5992 14.2712 28.7808C14.271 28.9625 14.234 29.1422 14.1626 29.3092C14.0911 29.4761 13.9865 29.6268 13.8553 29.7522C13.724 29.8776 13.5687 29.9751 13.3988 30.0388C13.2288 30.1025 13.0477 30.131 12.8665 30.1227C12.521 30.1069 12.1948 29.9583 11.9561 29.7078C11.7173 29.4574 11.5842 29.1244 11.5845 28.7782C11.5849 28.4319 11.7186 28.0992 11.9579 27.8492C12.1972 27.5993 12.5236 27.4513 12.8691 27.4362ZM18.2357 27.4362C18.5812 27.4517 18.9074 27.5999 19.1465 27.8502C19.3855 28.1004 19.5189 28.4332 19.5189 28.7794C19.5189 29.1256 19.3855 29.4585 19.1465 29.7087C18.9074 29.9589 18.5812 30.1072 18.2357 30.1227C17.8901 30.1072 17.5639 29.9589 17.3249 29.7087C17.0858 29.4585 16.9524 29.1256 16.9524 28.7794C16.9524 28.4332 17.0858 28.1004 17.3249 27.8502C17.5639 27.5999 17.8901 27.4517 18.2357 27.4362ZM7.50129 22.0644C7.681 22.0587 7.86002 22.0893 8.02772 22.1542C8.19543 22.2191 8.34839 22.3171 8.47752 22.4423C8.60666 22.5675 8.70933 22.7175 8.77945 22.8832C8.84957 23.0489 8.8857 23.2271 8.8857 23.407C8.8857 23.587 8.84957 23.7652 8.77945 23.9309C8.70933 24.0966 8.60666 24.2465 8.47752 24.3718C8.34839 24.497 8.19543 24.595 8.02772 24.6599C7.86002 24.7248 7.681 24.7553 7.50129 24.7496C7.1529 24.7386 6.82247 24.5923 6.57993 24.3417C6.33739 24.0911 6.20177 23.7559 6.20177 23.407C6.20177 23.0581 6.33739 22.7229 6.57993 22.4723C6.82247 22.2218 7.1529 22.0755 7.50129 22.0644ZM12.8691 22.0644C13.2249 22.0644 13.566 22.2059 13.8176 22.4577C14.0691 22.7095 14.2104 23.051 14.2104 23.407C14.2104 23.7631 14.0691 24.1046 13.8176 24.3564C13.566 24.6082 13.2249 24.7496 12.8691 24.7496C12.5134 24.7496 12.1723 24.6082 11.9207 24.3564C11.6692 24.1046 11.5279 23.7631 11.5279 23.407C11.5279 23.051 11.6692 22.7095 11.9207 22.4577C12.1723 22.2059 12.5134 22.0644 12.8691 22.0644ZM18.2357 22.0644C18.4156 22.0587 18.5948 22.0893 18.7626 22.1543C18.9305 22.2192 19.0836 22.3173 19.2129 22.4427C19.3421 22.568 19.4449 22.7181 19.5151 22.884C19.5853 23.0499 19.6215 23.2282 19.6215 23.4084C19.6215 23.5885 19.5853 23.7669 19.5151 23.9327C19.4449 24.0986 19.3421 24.2487 19.2129 24.3741C19.0836 24.4994 18.9305 24.5975 18.7626 24.6625C18.5948 24.7275 18.4156 24.758 18.2357 24.7523C17.8869 24.7413 17.5562 24.5948 17.3134 24.344C17.0706 24.0932 16.9348 23.7576 16.9348 23.4084C16.9348 23.0591 17.0706 22.7236 17.3134 22.4727C17.5562 22.2219 17.8869 22.0755 18.2357 22.0644ZM23.6022 22.0644C23.7821 22.0587 23.9613 22.0893 24.1291 22.1543C24.297 22.2192 24.4501 22.3173 24.5794 22.4427C24.7086 22.568 24.8114 22.7181 24.8816 22.884C24.9518 23.0499 24.988 23.2282 24.988 23.4084C24.988 23.5885 24.9518 23.7669 24.8816 23.9327C24.8114 24.0986 24.7086 24.2487 24.5794 24.3741C24.4501 24.4994 24.297 24.5975 24.1291 24.6625C23.9613 24.7275 23.7821 24.758 23.6022 24.7523C23.2535 24.7413 22.9227 24.5948 22.6799 24.344C22.4371 24.0932 22.3014 23.7576 22.3014 23.4084C22.3014 23.0591 22.4371 22.7236 22.6799 22.4727C22.9227 22.2219 23.2535 22.0755 23.6022 22.0644ZM28.9687 22.0644C29.1484 22.0587 29.3274 22.0893 29.4951 22.1542C29.6628 22.2191 29.8158 22.3171 29.9449 22.4423C30.0741 22.5675 30.1768 22.7175 30.2469 22.8832C30.317 23.0489 30.3531 23.2271 30.3531 23.407C30.3531 23.587 30.317 23.7652 30.2469 23.9309C30.1768 24.0966 30.0741 24.2465 29.9449 24.3718C29.8158 24.497 29.6628 24.595 29.4951 24.6599C29.3274 24.7248 29.1484 24.7553 28.9687 24.7496C28.6203 24.7386 28.2899 24.5923 28.0474 24.3417C27.8048 24.0911 27.6692 23.7559 27.6692 23.407C27.6692 23.0581 27.8048 22.7229 28.0474 22.4723C28.2899 22.2218 28.6203 22.0755 28.9687 22.0644ZM12.8691 16.6927C13.0452 16.6927 13.2195 16.7274 13.3822 16.7949C13.5448 16.8623 13.6926 16.9611 13.8171 17.0858C13.9416 17.2104 14.0403 17.3583 14.1077 17.5211C14.1751 17.6839 14.2098 17.8584 14.2098 18.0346C14.2098 18.2109 14.1751 18.3854 14.1077 18.5482C14.0403 18.711 13.9416 18.8589 13.8171 18.9835C13.6926 19.1081 13.5448 19.207 13.3822 19.2744C13.2195 19.3419 13.0452 19.3766 12.8691 19.3766C12.5136 19.3766 12.1726 19.2352 11.9212 18.9835C11.6698 18.7319 11.5285 18.3905 11.5285 18.0346C11.5285 17.6787 11.6698 17.3374 11.9212 17.0858C12.1726 16.8341 12.5136 16.6927 12.8691 16.6927ZM18.2357 16.6927C18.4169 16.6846 18.598 16.7133 18.7679 16.7772C18.9378 16.841 19.093 16.9386 19.2241 17.0642C19.3553 17.1897 19.4596 17.3405 19.531 17.5076C19.6023 17.6746 19.639 17.8543 19.639 18.036C19.639 18.2176 19.6023 18.3974 19.531 18.5644C19.4596 18.7314 19.3553 18.8823 19.2241 19.0078C19.093 19.1333 18.9378 19.231 18.7679 19.2948C18.598 19.3586 18.4169 19.3874 18.2357 19.3792C17.8901 19.3638 17.5639 19.2155 17.3249 18.9653C17.0858 18.715 16.9524 18.3822 16.9524 18.036C16.9524 17.6898 17.0858 17.3569 17.3249 17.1067C17.5639 16.8565 17.8901 16.7082 18.2357 16.6927ZM23.6022 16.6927C23.7835 16.6846 23.9645 16.7133 24.1344 16.7772C24.3043 16.841 24.4595 16.9386 24.5906 17.0642C24.7218 17.1897 24.8262 17.3405 24.8975 17.5076C24.9688 17.6746 25.0056 17.8543 25.0056 18.036C25.0056 18.2176 24.9688 18.3974 24.8975 18.5644C24.8262 18.7314 24.7218 18.8823 24.5906 19.0078C24.4595 19.1333 24.3043 19.231 24.1344 19.2948C23.9645 19.3586 23.7835 19.3874 23.6022 19.3792C23.2567 19.3638 22.9304 19.2155 22.6914 18.9653C22.4523 18.715 22.3189 18.3822 22.3189 18.036C22.3189 17.6898 22.4523 17.3569 22.6914 17.1067C22.9304 16.8565 23.2567 16.7082 23.6022 16.6927ZM28.9687 16.6927C29.3244 16.6925 29.6657 16.8338 29.9173 17.0855C30.169 17.3371 30.3105 17.6786 30.3107 18.0346C30.3109 18.3907 30.1697 18.7323 29.9183 18.9842C29.6669 19.2361 29.3258 19.3777 28.9701 19.3779C28.7939 19.378 28.6195 19.3434 28.4567 19.276C28.2939 19.2086 28.146 19.1097 28.0214 18.9851C27.8968 18.8605 27.7979 18.7126 27.7304 18.5497C27.663 18.3869 27.6282 18.2123 27.6281 18.036C27.628 17.8597 27.6626 17.6851 27.7299 17.5221C27.7973 17.3592 27.896 17.2112 28.0205 17.0864C28.145 16.9617 28.2928 16.8627 28.4555 16.7952C28.6182 16.7276 28.7926 16.6928 28.9687 16.6927Z" fill="#FFA04D"/>
</svg>
