<svg xmlns="http://www.w3.org/2000/svg" xmlns:xlink="http://www.w3.org/1999/xlink" viewBox="0 0 1000 563" width="1000" height="563" preserveAspectRatio="xMidYMid meet" style="width: 100%; height: 100%; transform: translate3d(0px, 0px, 0px); content-visibility: visible;" id="Notification bell"><defs><clipPath id="__lottie_element_60100"><rect width="1000" height="563" x="0" y="0"/></clipPath></defs><g clip-path="url(#__lottie_element_60100)"><g transform="matrix(0.5699941515922546,0.0025758063420653343,-0.0025758063420653343,0.5699941515922546,499.374267578125,281.47344970703125)" opacity="1" style="display: block;"><g opacity="1" transform="matrix(1,0,0,1,0,0)"><path fill="rgb(239,162,37)" fill-opacity="1" d=" M272.1099853515625,208.25 C207.07000732421875,178.8800048828125 204.60000610351562,52.810001373291016 204.5500030517578,49.630001068115234 C204.5500030517578,49.630001068115234 204.5500030517578,-34.95000076293945 204.5500030517578,-34.95000076293945 C204.5500030517578,-116.3499984741211 154.80999755859375,-186.33999633789062 84.12000274658203,-216.14999389648438 C83.97000122070312,-258 49.880001068115234,-292 8,-292 C-33.880001068115234,-292 -67.97000122070312,-258 -68.12000274658203,-216.14999389648438 C-138.8000030517578,-186.35000610351562 -188.5399932861328,-116.3499984741211 -188.5399932861328,-34.95000076293945 C-188.5399932861328,-34.95000076293945 -188.5399932861328,49.630001068115234 -188.5399932861328,49.630001068115234 C-188.58999633789062,52.810001373291016 -191.07000732421875,178.8800048828125 -256.1099853515625,208.25 C-263.510009765625,211.60000610351562 -267.5899963378906,219.66000366210938 -265.8699951171875,227.61000061035156 C-264.1600036621094,235.55999755859375 -257.1300048828125,241.24000549316406 -249,241.24000549316406 C-249,241.24000549316406 265,241.24000549316406 265,241.24000549316406 C273.1300048828125,241.24000549316406 280.1600036621094,235.55999755859375 281.8699951171875,227.61000061035156 C283.5899963378906,219.66000366210938 279.5199890136719,211.60000610351562 272.1099853515625,208.25z M8,-257.489990234375 C26.950000762939453,-257.489990234375 42.959999084472656,-244.75999450683594 47.97999954223633,-227.39999389648438 C35.060001373291016,-230.0800018310547 21.690000534057617,-231.49000549316406 8,-231.49000549316406 C-5.690000057220459,-231.49000549316406 -19.059999465942383,-230.0800018310547 -31.969999313354492,-227.39999389648438 C-26.959999084472656,-244.75 -10.9399995803833,-257.489990234375 8,-257.489990234375z M-154.02999877929688,49.7400016784668 C-154.02999877929688,49.7400016784668 -154.02999877929688,-34.95000076293945 -154.02999877929688,-34.95000076293945 C-154.02999877929688,-124.29000091552734 -81.33999633789062,-196.97900390625 8,-196.97900390625 C97.3499984741211,-196.97900390625 170.02999877929688,-124.29000091552734 170.02999877929688,-34.95000076293945 C170.02999877929688,-34.95000076293945 170.02999877929688,49.880001068115234 170.02999877929688,49.880001068115234 C170.05999755859375,52.470001220703125 170.4600067138672,79.76100158691406 177.33999633789062,113.34100341796875 C177.33999633789062,113.34100341796875 -161.33999633789062,113.34100341796875 -161.33999633789062,113.34100341796875 C-154.4600067138672,79.72100067138672 -154.0500030517578,52.38999938964844 -154.02999877929688,49.7400016784668z M-200.67999267578125,206.72999572753906 C-186.9499969482422,189.39999389648438 -177.27000427246094,168.58999633789062 -170.44000244140625,147.86000061035156 C-170.44000244140625,147.86000061035156 186.42999267578125,147.86000061035156 186.42999267578125,147.86000061035156 C193.27000427246094,168.58999633789062 202.9499969482422,189.39999389648438 216.67999267578125,206.72999572753906 C216.67999267578125,206.72999572753906 -200.67999267578125,206.72999572753906 -200.67999267578125,206.72999572753906z"/></g></g><g transform="matrix(0.5699941515922546,0.0025758063420653343,-0.0025758063420653343,0.5699941515922546,470.7260437011719,226.16287231445312)" opacity="1" style="display: block;"><g opacity="1" transform="matrix(1,0,0,1,0,0)"><path fill="rgb(239,162,37)" fill-opacity="1" d=" M58.69900131225586,-75.95600128173828 C-15.550999641418457,-75.95600128173828 -75.95800018310547,-15.550999641418457 -75.95800018310547,58.698001861572266 C-75.95800018310547,68.22899627685547 -68.23100280761719,75.95600128173828 -58.70000076293945,75.95600128173828 C-49.16899871826172,75.95600128173828 -41.44200134277344,68.22899627685547 -41.44200134277344,58.698001861572266 C-41.44200134277344,3.4809999465942383 3.4809999465942383,-41.441001892089844 58.70000076293945,-41.441001892089844 C68.23100280761719,-41.441001892089844 75.95800018310547,-49.167999267578125 75.95800018310547,-58.69900131225586 C75.95700073242188,-68.23100280761719 68.2300033569336,-75.95600128173828 58.69900131225586,-75.95600128173828z"/></g></g><g transform="matrix(0.5199934244155884,0.0026109516620635986,-0.0026109516620635986,0.5199934244155884,799.2532958984375,326.6045227050781)" opacity="1" style="display: block;"><g opacity="1" transform="matrix(1,0,0,1,0,0)"><path fill="rgb(239,162,37)" fill-opacity="1" d=" M-518.2899780273438,178.24000549316406 C-525.6699829101562,203.49000549316406 -548.6599731445312,222.47999572753906 -575,222.47999572753906 C-601.3400268554688,222.47999572753906 -624.3300170898438,203.49000549316406 -631.7100219726562,178.24000549316406 C-631.7100219726562,178.24000549316406 -667.1199951171875,178.24000549316406 -667.1199951171875,178.24000549316406 C-663.739990234375,196.8300018310547 -654.9500122070312,214.13099670410156 -641.5,228.14100646972656 C-623.6400146484375,246.75100708007812 -600.02001953125,257 -575,257 C-549.97998046875,257 -526.3599853515625,246.75100708007812 -508.5,228.14100646972656 C-495.04998779296875,214.13099670410156 -486.260009765625,196.8300018310547 -482.8800048828125,178.24000549316406 C-482.8800048828125,178.24000549316406 -518.2899780273438,178.24000549316406 -518.2899780273438,178.24000549316406z"/></g></g></g></svg>